<svg id=map xmlns="http://www.w3.org/2000/svg" width="32" height="32" viewBox="0 0 32 32" fill="none">
<path d="M16.0009 1.0721C21.2919 1.0721 25.5969 5.3771 25.5969 10.6691C25.5969 12.3521 25.1509 14.0101 24.3069 15.4681L15.9999 29.8621L7.69189 15.4671C6.84889 14.0111 6.40289 12.3521 6.40289 10.6691C6.40289 5.3771 10.7089 1.0721 16.0009 1.0721ZM16.0009 14.4001C18.0589 14.4001 19.7319 12.7261 19.7319 10.6691C19.7319 8.6121 18.0579 6.9381 16.0009 6.9381C13.9429 6.9381 12.2689 8.6121 12.2689 10.6691C12.2689 12.7261 13.9429 14.4001 16.0009 14.4001ZM16.0009 0.00610352C10.1119 0.00610352 5.33789 4.7811 5.33789 10.6691C5.33789 12.6141 5.86089 14.4311 6.76989 16.0011L15.9999 31.9951L25.2299 16.0011C26.1389 14.4311 26.6619 12.6141 26.6619 10.6691C26.6619 4.7811 21.8889 0.00610352 16.0009 0.00610352ZM16.0009 13.3341C14.5289 13.3341 13.3349 12.1411 13.3349 10.6691C13.3349 9.1981 14.5289 8.0041 16.0009 8.0041C17.4729 8.0041 18.6659 9.1981 18.6659 10.6691C18.6659 12.1411 17.4729 13.3341 16.0009 13.3341Z" fill="#DFB71D"/>
</svg>