<svg width="32" height="32" viewBox="0 0 32 32" fill="none" xmlns="http://www.w3.org/2000/svg">
<path d="M21.7563 31.2782H10.0313C8.59385 31.2782 7.42822 30.1126 7.42822 28.6751V3.24692C7.42822 1.80942 8.59385 0.643799 10.0313 0.643799H21.7563C23.1938 0.643799 24.3595 1.80942 24.3595 3.24692V28.6751C24.3595 30.1157 23.1938 31.2782 21.7563 31.2782Z" fill="#2E3033"/>
<path d="M21.6311 31.7062H10.1561C8.41855 31.7062 7.00293 30.2906 7.00293 28.5531V3.37188C7.00293 1.63438 8.41855 0.21875 10.1561 0.21875H21.6311C23.3686 0.21875 24.7842 1.63438 24.7842 3.37188V28.5531C24.7842 30.2906 23.3717 31.7062 21.6311 31.7062ZM10.1561 1.07187C8.8873 1.07187 7.85605 2.10313 7.85605 3.37188V28.5531C7.85605 29.8219 8.8873 30.8531 10.1561 30.8531H21.6311C22.8998 30.8531 23.9311 29.8219 23.9311 28.5531V3.37188C23.9311 2.10313 22.8998 1.07187 21.6311 1.07187H10.1561Z" fill="#DFB71D"/>
<path d="M7.42822 4.56567H24.3595V25.5688H7.42822V4.56567Z" fill="#2E3033"/>
<path d="M24.3592 25.9937H7.42793C7.19355 25.9937 7.00293 25.8031 7.00293 25.5688V4.56563C7.00293 4.33125 7.19355 4.14062 7.42793 4.14062H24.3592C24.5936 4.14062 24.7842 4.33125 24.7842 4.56563V25.5688C24.7842 25.8031 24.5936 25.9937 24.3592 25.9937ZM7.85605 25.1437H23.9342V4.99062H7.85605V25.1437Z" fill="#DFB71D"/>
<path d="M14.7095 28.4124C14.7095 28.5679 14.7401 28.7219 14.7996 28.8656C14.8591 29.0093 14.9464 29.1399 15.0564 29.2499C15.1663 29.3599 15.2969 29.4471 15.4406 29.5066C15.5843 29.5661 15.7383 29.5968 15.8938 29.5968C16.0494 29.5968 16.2034 29.5661 16.3471 29.5066C16.4908 29.4471 16.6213 29.3599 16.7313 29.2499C16.8413 29.1399 16.9285 29.0093 16.9881 28.8656C17.0476 28.7219 17.0782 28.5679 17.0782 28.4124C17.0782 28.0983 16.9534 27.797 16.7313 27.5749C16.5092 27.3528 16.208 27.228 15.8938 27.228C15.5797 27.228 15.2785 27.3528 15.0564 27.5749C14.8343 27.797 14.7095 28.0983 14.7095 28.4124Z" fill="#FAFCFB"/>
<path d="M15.8936 30.022C15.0061 30.022 14.2842 29.3001 14.2842 28.4126C14.2842 27.5251 15.0061 26.8032 15.8936 26.8032C16.7811 26.8032 17.5029 27.5251 17.5029 28.4126C17.5029 29.3001 16.7811 30.022 15.8936 30.022ZM15.8936 27.6532C15.4748 27.6532 15.1342 27.9938 15.1342 28.4126C15.1342 28.8313 15.4748 29.172 15.8936 29.172C16.3123 29.172 16.6529 28.8313 16.6529 28.4126C16.6529 27.9938 16.3123 27.6532 15.8936 27.6532Z" fill="#FAFCFB"/>
</svg>
